<svg xmlns="http://www.w3.org/2000/svg" enable-background="new 0 0 512 512" viewBox="0 0 512 512" id="books"><path d="M505.35,170.46v-0.01c-1.822-46.913-41.681-83.693-89.023-83.693H109.342c-10.63,0-19.272,8.642-19.272,19.272c0,10.825,8.827,19.282,19.272,19.282h9.529v97.002h-9.529c-10.63,0-19.272,8.652-19.272,19.282c0,3.449,0.906,6.732,2.572,9.597c-45.783,1.53-84.2,37.501-85.983,83.635h-0.01c-1.861,49.339,37.608,90.416,87.016,90.416h309.002c10.825,0,19.272-8.837,19.272-19.282c0-10.63-8.642-19.272-19.272-19.272h-9.529v-97.012h9.529c10.844,0,19.272-8.857,19.272-19.272c0-3.478-0.935-6.732-2.553-9.548C468.17,260.282,507.211,219.605,505.35,170.46z M383.396,306.62H117.847c-2.689,0-4.872,2.182-4.872,4.872s2.182,4.872,4.872,4.872h265.548v16.943H93.665c-2.689,0-4.872,2.182-4.872,4.872c0,2.699,2.182,4.872,4.872,4.872h289.731v16.953H117.847c-2.689,0-4.872,2.182-4.872,4.872c0,2.689,2.182,4.872,4.872,4.872h265.548v16.943H93.665c-27.612,0-49.778-23.023-48.423-50.869c1.228-26.024,23.685-46.143,49.953-46.143h288.201V306.62z M418.344,222.313H128.613V205.37h265.548c2.689,0,4.872-2.182,4.872-4.872c0-2.689-2.182-4.872-4.872-4.872H128.613v-16.943h289.731c2.689,0,4.872-2.182,4.872-4.872s-2.183-4.872-4.872-4.872H128.613v-16.943h265.548c2.689,0,4.872-2.183,4.872-4.872c0-2.689-2.182-4.872-4.872-4.872H128.613v-16.943h288.201c26.267,0,48.725,20.119,49.953,46.143C468.112,199.134,446.092,222.313,418.344,222.313z"></path></svg>