<svg xmlns="http://www.w3.org/2000/svg" viewBox="0 0 512 512" id="pdf-file"><path d="M91.9 166.3h-13v21.2h13c3.7 0 6.5-1 8.4-3 1.9-2 2.8-4.5 2.8-7.5s-.9-5.6-2.8-7.6c-1.9-2.1-4.7-3.1-8.4-3.1z"></path><path d="M254.6 188.2c0-28.5-21.6-51.6-48.3-51.6H36.8v103.3h169.5c26.7 0 48.3-23.2 48.3-51.7zm-147.2 2.2c-3.8 3.4-8.9 5.1-15.6 5.1h-13v22.7h-10v-60h23c6.6 0 11.8 1.7 15.6 5.1s5.6 7.9 5.6 13.5c0 5.7-1.8 10.2-5.6 13.6zm63.3 2.4c0 7.5-2.4 13.6-7.1 18.3-4.8 4.7-11 7.1-18.6 7.1h-19.8v-60H145c7.6 0 13.8 2.4 18.6 7.1 4.8 4.8 7.1 10.9 7.1 18.3v9.2zm23.5 25.4h-10v-60h38.4v8h-28.4v18.3h24.2v8h-24.2v25.7z"></path><path d="M145 166.3h-9.8v44h9.8c4.8 0 8.6-1.6 11.5-4.9 2.8-3.3 4.2-7.4 4.2-12.5v-9.2c0-5.1-1.4-9.2-4.2-12.5-2.9-3.3-6.7-4.9-11.5-4.9zM373.4 35.5h70.7v9.1h-70.7zM444 12.6c0-3.6-2.9-6.6-6.6-6.6H380c-3.6 0-6.6 2.9-6.6 6.6v13.8H444V12.6zM474.5 110.6c-1.1-2.3-3.4-3.7-5.9-3.7H444V53.6h-70.7v53.3h-24.5c-2.5 0-4.8 1.4-5.9 3.7-1.1 2.3-.8 5 .7 6.9l59.9 76.9c1.2 1.6 3.2 2.5 5.2 2.5s4-.9 5.2-2.5l59.9-76.9c1.5-2 1.8-4.7.7-6.9z"></path><path d="M392.5 203l-59.9-76.9c-4.8-6.2-5.7-14.7-2.2-21.7 3.4-7 10.7-11.5 18.5-11.5h10.6V40.2h-274c-26.9 0-48.7 21.8-48.7 48.7v33.8h169.5c34.4 0 62.3 29.4 62.3 65.6 0 36.2-28 65.6-62.3 65.6H36.8v203.4c0 26.9 21.8 48.7 48.7 48.7H360c26.9 0 48.7-21.8 48.7-48.7V211c-6.4 0-12.3-2.9-16.2-8z"></path></svg>