<svg version="1.1" id="Layer_1" xmlns="http://www.w3.org/2000/svg" xmlns:xlink="http://www.w3.org/1999/xlink" x="100px" y="100px"
	 width="200rem" height="200rem" viewBox="0 0 842 595" enable-background="new 0 0 842 595" xml:space="preserve">
<path fill="#FFFFFF" opacity="1.000000" stroke="none"
	d="
M453.000000,596.000000
	C303.500000,596.000000 154.499985,595.983582 5.500070,596.093994
	C1.750613,596.096802 0.904336,595.249268 0.906374,591.499939
	C1.012547,396.166656 1.012547,200.833328 0.906374,5.500051
	C0.904336,1.750742 1.750856,0.905372 5.500034,0.906750
	C283.166656,1.008834 560.833313,1.008834 838.499939,0.906750
	C842.249146,0.905372 843.095642,1.750741 843.093628,5.500051
	C842.987427,200.833328 842.987488,396.166656 843.093689,591.499939
	C843.095703,595.249268 842.249451,596.097595 838.499939,596.094299
	C710.166687,595.980957 581.833313,596.000000 453.000000,596.000000
z"/>
<path fill="#F57A23" opacity="1.000000" stroke="none"
	d="
M179.888092,349.903687
	C169.783218,372.757111 159.841522,395.268951 149.816391,417.743591
	C148.692337,420.263550 148.435883,423.623169 144.021255,423.250275
	C138.503510,422.784180 132.518021,424.391052 128.844681,418.289795
	C127.478523,416.020630 129.588089,415.263306 130.520157,414.231842
	C138.394577,405.517487 142.792343,395.413696 143.655716,383.654419
	C144.593460,370.882050 134.865112,358.284912 123.315720,357.701447
	C117.424065,357.403809 112.347984,360.205780 110.119781,364.905914
	C109.055931,367.149994 108.865639,368.666046 112.161224,368.458832
	C114.649925,368.302338 117.168633,368.272430 119.652870,368.462341
	C126.668739,368.998688 131.779892,374.073975 131.949539,381.139252
	C132.184570,390.927734 128.435532,399.274689 121.912369,406.484802
	C120.459732,408.090424 119.382698,408.204407 117.898163,406.547028
	C105.572769,392.786652 92.173676,379.990234 80.636497,365.530182
	C74.210388,357.476074 69.338890,348.628815 69.838737,337.779846
	C70.127800,331.505920 73.161812,327.001434 78.826424,324.502930
	C84.720329,321.903290 90.260101,323.022736 95.123993,327.133728
	C99.498192,330.830841 99.078445,335.967712 99.048439,340.990814
	C99.038956,342.579926 98.184624,344.808014 99.611061,345.652100
	C101.490974,346.764526 103.432869,345.129700 105.064842,344.075500
	C110.561890,340.524567 112.072395,332.788666 108.635773,326.255463
	C105.317268,319.946869 99.643013,316.373138 92.412575,313.256165
	C127.442802,313.256165 161.363495,313.256165 196.029053,313.256165
	C190.579483,325.616394 185.303116,337.583801 179.888092,349.903687
z"/>
<path fill="#1A5768" opacity="1.000000" stroke="none"
	d="
M358.301636,354.665833
	C364.478607,362.970123 370.629547,370.856781 376.315491,379.065521
	C378.862000,382.741882 379.862976,381.751099 382.033173,378.806732
	C397.542603,357.764160 413.221771,336.846680 428.855927,315.896118
	C430.520660,313.665344 442.945801,311.796875 445.103638,313.443878
	C446.218109,314.294464 445.849945,315.572968 445.850433,316.689453
	C445.865784,351.020355 445.838745,385.351257 445.903717,419.682037
	C445.908417,422.156158 445.392822,423.147125 442.646881,423.259247
	C432.412994,423.677002 432.414246,423.791107 432.415710,413.630493
	C432.419312,388.465637 432.426422,363.300781 432.431976,338.135925
	C432.432373,336.314362 432.432037,334.492798 432.432037,332.315399
	C430.092804,332.886078 429.510925,334.766022 428.527222,336.070435
	C412.683624,357.079620 396.837280,378.087463 381.153687,399.215881
	C378.772980,402.423065 377.610565,402.741608 375.050476,399.303406
	C358.840149,377.532928 342.416290,355.921417 326.059631,334.259918
	C325.608185,333.662048 325.119812,333.092072 323.873138,331.549469
	C323.873138,334.335571 323.873383,335.920898 323.873108,337.506226
	C323.868439,364.337616 323.772156,391.169617 323.958191,417.999664
	C323.985962,422.005005 323.263153,423.957275 318.916382,423.217529
	C317.621307,422.997131 316.234192,423.038208 314.926910,423.224182
	C311.788757,423.670654 311.055420,422.380066 311.065430,419.332825
	C311.177216,385.335571 311.178009,351.337769 311.077301,317.340485
	C311.067932,314.177277 311.868805,313.378021 315.154510,312.983887
	C323.757477,311.951965 329.559692,314.598175 334.442780,322.180817
	C341.638794,333.354889 350.140564,343.688080 358.301636,354.665833
z"/>
<path fill="#1A5768" opacity="1.000000" stroke="none"
	d="
M76.079926,212.898178
	C82.530571,221.615646 88.992592,229.891220 94.952805,238.513672
	C97.714874,242.509460 98.905182,241.572998 101.323448,238.279907
	C116.200089,218.021240 131.274139,197.907532 146.286072,177.748260
	C149.129333,173.930099 159.531204,171.254059 163.665314,173.283997
	C165.719986,174.292892 164.810120,176.215347 164.814331,177.711304
	C164.875977,199.703888 164.856323,221.696732 164.856262,243.689499
	C164.856232,255.518936 164.748718,267.350037 164.930283,279.176697
	C164.977615,282.260254 164.125305,283.112030 161.038086,283.109802
	C151.435852,283.102875 151.435776,283.241760 151.435776,273.441345
	C151.435791,246.459747 151.435776,219.478134 151.435776,192.500336
	C149.348083,192.037476 149.086227,193.749176 148.409317,194.646820
	C132.370712,215.915222 116.323608,237.177948 100.449287,258.568787
	C97.929764,261.963837 96.807587,262.953308 93.729927,258.790466
	C77.302834,236.571136 60.524052,214.611816 43.635502,192.256256
	C42.396069,194.060852 42.895115,195.882217 42.892445,197.531784
	C42.849007,224.356232 42.755203,251.181580 42.963017,278.004456
	C42.996002,282.262207 41.749832,283.664276 37.697346,283.053223
	C36.231171,282.832184 34.691952,282.898590 33.206848,283.044830
	C30.792400,283.282654 30.090704,282.299438 30.095093,279.922974
	C30.158772,245.434433 30.164885,210.945679 30.091333,176.457184
	C30.085590,173.764404 31.122551,173.356598 33.574013,173.040817
	C42.389835,171.905197 48.680706,174.224258 53.735004,182.424515
	C60.260334,193.011444 68.426453,202.587067 76.079926,212.898178
z"/>
<path fill="#175466" opacity="1.000000" stroke="none"
	d="
M280.675171,245.561737
	C272.384338,245.554871 264.547058,245.765198 256.729614,245.463043
	C252.849274,245.313065 251.997665,246.659027 252.089539,250.300476
	C252.337326,260.122253 252.077011,269.955994 252.238983,279.781342
	C252.282761,282.437103 251.497055,283.042542 248.913193,283.083160
	C237.987823,283.254730 237.989426,283.352203 237.989319,272.386505
	C237.989029,240.903519 238.071350,209.420059 237.886032,177.938156
	C237.862259,173.899750 239.026642,173.022827 242.863098,173.059967
	C262.517303,173.250198 282.174561,173.088272 301.830292,173.166565
	C319.088287,173.235306 334.450684,184.281647 339.020752,199.724319
	C345.145844,220.421722 330.018280,242.423126 307.921753,245.005127
	C306.323883,245.191849 304.570770,244.718307 302.577240,246.322876
	C315.712128,258.330505 328.737823,270.238342 342.707153,283.008820
	C336.192566,283.008820 330.801392,282.968292 325.411407,283.030121
	C323.439850,283.052765 322.493988,281.608856 321.315338,280.499847
	C309.797974,269.662872 298.276367,258.830139 286.821472,247.927353
	C285.162292,246.348160 283.532745,245.155060 280.675171,245.561737
z"/>
<path fill="#1A5768" opacity="1.000000" stroke="none"
	d="
M599.433472,220.999847
	C599.433350,206.171631 599.486816,191.843033 599.388184,177.515488
	C599.368103,174.600296 599.641907,172.923813 603.339783,173.061905
	C620.137390,173.689148 637.033325,171.757019 653.746521,174.074188
	C693.265991,179.553284 714.487488,223.065826 693.621704,256.054321
	C682.387756,273.815002 665.477173,282.482025 644.561768,282.961823
	C631.073730,283.271210 617.570435,282.880157 604.079163,283.109955
	C600.394043,283.172729 599.293457,282.311066 599.336243,278.478394
	C599.548462,259.487549 599.433167,240.493057 599.433472,220.999847
z"/>
<path fill="#165466" opacity="1.000000" stroke="none"
	d="
M587.828003,361.999939
	C587.828186,346.839691 587.935913,332.178070 587.749573,317.520203
	C587.705444,314.045807 588.638306,312.959778 592.172180,313.079620
	C608.309082,313.626770 624.492920,312.192963 640.600159,314.007690
	C667.534058,317.042267 689.386841,340.306335 690.009460,366.451416
	C690.655212,393.568787 670.861938,417.422852 643.643738,421.988861
	C628.764893,424.484863 613.719788,422.821045 598.753296,423.129669
	C587.830994,423.354889 587.827759,423.173828 587.828003,412.478119
	C587.828430,395.818726 587.828064,379.159363 587.828003,361.999939
z"/>
<path fill="#175466" opacity="1.000000" stroke="none"
	d="
M804.700134,407.703308
	C779.601379,430.600159 741.295837,429.320129 719.781677,404.881317
	C705.192444,388.308807 701.354858,369.123901 709.318970,348.631317
	C717.323669,328.034271 733.327087,316.033722 755.118286,313.142242
	C786.785706,308.940308 814.021301,327.448303 820.348694,357.199249
	C824.459045,376.525513 818.825562,393.379822 804.700134,407.703308
z"/>
<path fill="#155366" opacity="1.000000" stroke="none"
	d="
M474.992157,241.000000
	C474.991730,219.515320 475.068512,198.530075 474.913055,177.546539
	C474.887817,174.140533 475.770721,173.420944 479.225128,172.971680
	C486.957001,171.966064 491.473785,175.056580 495.944641,181.229431
	C515.074707,207.642166 534.759033,233.653580 554.280884,259.781738
	C555.103760,260.883087 555.533752,262.510681 557.829468,262.871613
	C557.829468,261.148987 557.829468,259.563599 557.829468,257.978210
	C557.829468,231.331009 558.031067,204.681183 557.681580,178.038559
	C557.598694,171.720413 561.322510,173.476547 564.638672,173.102249
	C568.664734,172.647842 569.976013,173.899124 569.951416,178.191925
	C569.760254,211.499847 569.782959,244.809631 569.930481,278.118011
	C569.947327,281.930328 569.036194,282.839783 565.098267,283.214294
	C558.103394,283.879456 554.058167,281.148193 550.034668,275.616547
	C530.460388,248.705093 510.436646,222.120575 490.562073,195.427704
	C489.780823,194.378433 488.898102,193.404724 487.978333,192.293991
	C486.487793,193.863251 487.210815,195.590561 487.207764,197.108368
	C487.153931,223.922012 487.032654,250.737183 487.300293,277.548279
	C487.347900,282.317352 485.863647,283.703613 481.511963,283.025513
	C480.537720,282.873688 479.503082,282.914429 478.520691,283.047211
	C475.701721,283.428131 474.894775,282.294464 474.927765,279.470978
	C475.075653,266.815460 474.992157,254.157242 474.992157,241.000000
z"/>
<path fill="#175567" opacity="1.000000" stroke="none"
	d="
M366.016541,270.084381
	C365.504456,271.359955 365.098083,272.271057 364.688416,273.180634
	C359.774414,284.090698 359.774323,284.090637 347.114563,282.576813
	C354.786255,265.187836 362.397339,247.887909 370.048950,230.605927
	C377.919403,212.829742 385.895233,195.099747 393.656586,177.276230
	C394.938171,174.333130 396.290192,172.997543 399.791382,173.037674
	C413.917969,173.199478 413.896881,173.057953 419.518188,186.098709
	C432.666931,216.602325 445.842316,247.094437 458.995941,277.595978
	C459.705383,279.241150 460.313629,280.929993 461.131836,283.013153
	C457.203522,283.013153 453.725525,282.828003 450.278076,283.073029
	C447.623199,283.261749 446.525970,282.132019 445.578949,279.811523
	C442.378937,271.970245 438.828461,264.271820 435.639557,256.426239
	C434.487366,253.591507 433.017334,252.433121 429.788574,252.466614
	C412.632141,252.644562 395.472046,252.635986 378.315277,252.473434
	C375.025940,252.442261 373.131073,253.256271 371.936829,256.488617
	C370.270264,260.999329 368.084381,265.318207 366.016541,270.084381
z"/>
<path fill="#185567" opacity="1.000000" stroke="none"
	d="
M777.800293,181.109558
	C792.443115,215.123825 806.955933,248.777542 821.468018,282.429504
	C820.723816,282.748169 820.582642,282.854706 820.434570,282.865479
	C807.902161,283.777161 807.887207,283.783234 802.807861,272.305298
	C800.523926,267.144287 798.130981,262.019745 796.138428,256.746033
	C794.980042,253.680267 793.458374,252.422211 789.985840,252.461639
	C772.660095,252.658554 755.330078,252.630219 738.003479,252.473511
	C734.981995,252.446198 733.594238,253.515045 732.484070,256.188751
	C729.557068,263.238525 726.009705,270.044739 723.351013,277.186859
	C721.651917,281.751373 719.406006,283.547272 714.363464,283.153198
	C707.305847,282.601715 707.234680,282.997620 710.120300,276.479706
	C724.778625,243.369370 739.497559,210.285751 754.066345,177.136063
	C755.399536,174.102524 756.952576,172.567337 760.367981,173.092911
	C762.158569,173.368454 764.083862,173.438721 765.848572,173.092941
	C772.348511,171.819290 776.257080,174.293777 777.800293,181.109558
z"/>
<path fill="#175466" opacity="1.000000" stroke="none"
	d="
M188.129761,423.177032
	C184.158691,423.618866 183.348846,422.715942 184.927078,419.179108
	C200.150757,385.062225 215.252167,350.890564 230.274979,316.684662
	C231.457703,313.991669 233.014648,313.458588 235.805969,312.997772
	C246.613113,311.213440 251.885574,315.373413 256.040527,325.787201
	C268.589355,357.239044 282.509705,388.145355 296.032104,419.204834
	C297.524292,422.632233 296.906250,423.279358 293.325195,423.253906
	C283.428894,423.183563 283.414978,423.330292 279.468872,414.221741
	C276.894867,408.280396 274.282990,402.353119 271.855408,396.351868
	C270.877319,393.933899 269.708313,392.748871 266.789276,392.775482
	C248.969604,392.938019 231.147324,392.916290 213.327026,392.794067
	C210.692764,392.776031 209.538513,393.749420 208.577408,396.057617
	C205.834198,402.645752 202.387665,408.973389 200.073273,415.697937
	C198.042297,421.598907 194.944916,424.546692 188.129761,423.177032
z"/>
<path fill="#175466" opacity="1.000000" stroke="none"
	d="
M529.634949,320.289551
	C544.445923,354.603973 559.082825,388.577667 573.987671,423.173401
	C569.533569,423.173401 565.742371,423.024506 561.969849,423.225616
	C559.439941,423.360443 558.996948,421.614288 558.283569,419.964539
	C554.857178,412.040985 551.308105,404.166504 548.092712,396.158112
	C547.046631,393.552765 545.705872,392.766846 542.969055,392.786224
	C525.320068,392.911316 507.669403,392.913788 490.020538,392.784851
	C487.271423,392.764771 485.921844,393.603180 484.864075,396.155212
	C481.812042,403.518768 478.158569,410.642761 475.323669,418.082764
	C473.753601,422.203339 471.585083,423.865936 467.261993,423.233307
	C464.994293,422.901428 462.637970,423.174744 459.595215,423.174744
	C462.830536,415.870453 465.835724,409.088013 468.839050,402.304810
	C481.405670,373.922485 494.022644,345.562225 506.463776,317.125031
	C507.792084,314.088928 509.280334,312.609619 512.681702,313.095093
	C514.803040,313.397858 517.055664,313.455780 519.157349,313.091827
	C524.882263,312.100250 528.285217,314.267639 529.634949,320.289551
z"/>
<path fill="#F57A23" opacity="1.000000" stroke="none"
	d="
M73.813324,422.229187
	C63.595650,420.880402 54.620941,417.753204 47.468815,410.605408
	C42.214577,405.354340 40.051670,399.052856 42.514652,391.924164
	C44.881599,385.073334 50.236732,380.974091 57.263561,379.923584
	C67.775459,378.352112 77.421425,380.189941 85.033295,388.612823
	C93.173332,397.620148 101.555557,406.408630 110.185013,415.671478
	C98.612885,421.723450 86.831657,424.072723 73.813324,422.229187
z"/>
<path fill="#F57C26" opacity="1.000000" stroke="none"
	d="
M59.366608,350.320007
	C61.278625,357.366058 64.875725,363.163361 68.754272,369.570496
	C60.790375,367.904358 53.563744,368.387177 46.617172,371.466705
	C39.776768,374.499207 34.392090,379.189453 30.134403,385.565704
	C30.134403,364.677948 30.130737,343.790161 30.136024,322.902405
	C30.138496,313.141022 30.146343,313.141083 40.121365,313.141083
	C52.002300,313.141113 63.883232,313.141083 77.178429,313.141083
	C71.522285,316.002899 67.153976,318.258392 63.881084,322.129700
	C56.799450,330.506165 56.822147,340.005707 59.366608,350.320007
z"/>
<path fill="#215C6E" opacity="1.000000" stroke="none"
	d="
M194.410019,209.999863
	C194.409607,198.677231 194.499756,187.853363 194.349564,177.032822
	C194.308075,174.043472 195.119537,173.054352 198.251785,173.034332
	C208.598816,172.968216 208.598053,172.831085 208.598038,183.026642
	C208.598022,214.661987 208.510468,246.297867 208.702805,277.932037
	C208.728333,282.129395 207.624924,283.270325 203.489624,283.137085
	C194.416946,282.844788 194.409836,283.063965 194.409836,273.937073
	C194.409821,252.791336 194.409866,231.645615 194.410019,209.999863
z"/>
<path fill="#FDFEFE" opacity="1.000000" stroke="none"
	d="
M252.171280,222.968658
	C252.171295,211.484497 252.286362,200.492645 252.100616,189.505875
	C252.045410,186.241302 252.574860,184.856323 256.333191,184.913742
	C271.315948,185.142639 286.305359,184.893768 301.290100,185.043106
	C315.597229,185.185684 326.465240,196.212082 326.226929,210.029617
	C325.996246,223.403641 315.213776,233.415039 300.934784,233.446655
	C286.614685,233.478378 272.288605,233.219299 257.977478,233.579468
	C253.005508,233.704590 251.374420,232.157303 252.139160,227.453979
	C252.350174,226.156189 252.171265,224.794998 252.171280,222.968658
z"/>
<path fill="#FEFEFE" opacity="1.000000" stroke="none"
	d="
M659.711060,188.018448
	C675.768372,195.030670 685.162720,206.682480 687.410339,223.897232
	C690.397583,246.776840 671.151306,269.675598 647.422729,270.888123
	C637.296875,271.405579 627.125366,270.967773 616.980225,271.204315
	C613.854126,271.277191 613.530151,269.873474 613.535950,267.331360
	C613.595520,241.038589 613.564392,214.745605 613.583191,188.452698
	C613.584290,186.907745 613.038452,184.891434 615.782288,185.022797
	C629.683350,185.688416 643.745728,183.245926 657.474731,187.190933
	C658.110718,187.373657 658.714905,187.666641 659.711060,188.018448
z"/>
<path fill="#FEFEFE" opacity="1.000000" stroke="none"
	d="
M660.429443,335.547668
	C675.008728,348.825012 679.634644,366.487762 673.138184,383.275909
	C666.520630,400.377014 650.464172,411.137177 631.486023,411.166962
	C622.820618,411.180542 614.153442,411.058868 605.490845,411.212219
	C602.734497,411.261017 601.772034,410.562897 601.784119,407.642242
	C601.893250,381.313019 601.857910,354.983215 601.844788,328.653564
	C601.843872,326.711578 601.761902,325.039246 604.590149,325.139923
	C615.732605,325.536591 626.905212,324.463196 638.030396,325.720062
	C646.365479,326.661804 653.670349,330.068542 660.429443,335.547668
z"/>
<path fill="#FDFEFE" opacity="1.000000" stroke="none"
	d="
M735.238464,401.809753
	C720.938843,389.102234 716.020203,370.732391 722.110901,353.509247
	C728.012756,336.820190 743.875793,325.136871 761.927185,324.183990
	C780.090088,323.225220 798.111145,335.261627 804.762329,352.794006
	C811.539490,370.658325 805.712158,391.101135 790.441895,403.031281
	C775.830505,414.446533 754.787964,415.270599 739.521667,405.006714
	C738.142395,404.079437 736.837891,403.040924 735.238464,401.809753
z"/>
<path fill="#FAFBFC" opacity="1.000000" stroke="none"
	d="
M400.087219,193.086700
	C401.452301,190.067184 402.684265,187.404587 404.290131,183.933853
	C412.762573,203.588394 420.855682,222.362961 429.248993,241.833969
	C419.537750,241.833969 410.485931,241.834442 401.434113,241.833786
	C395.447571,241.833359 389.453735,241.652267 383.477142,241.895340
	C379.738647,242.047409 378.385529,241.644470 380.298431,237.491180
	C387.023895,222.888611 393.428009,208.138016 400.087219,193.086700
z"/>
<path fill="#FAFBFC" opacity="1.000000" stroke="none"
	d="
M781.375610,222.636169
	C783.839539,228.319733 786.103271,233.675003 788.426941,239.004105
	C789.153198,240.669464 789.419556,241.853882 786.932495,241.849594
	C771.168762,241.822464 755.405029,241.835815 738.913635,241.835815
	C747.559998,222.289307 755.933533,203.359558 764.604553,183.757248
	C770.308899,197.005859 775.753784,209.651810 781.375610,222.636169
z"/>
<path fill="#FCFDFD" opacity="1.000000" stroke="none"
	d="
M245.182159,334.833557
	C251.961563,350.526184 258.606293,365.862427 265.461151,381.683655
	C248.384781,381.683655 231.921249,381.683655 214.979462,381.683655
	C223.403015,362.649231 231.708801,343.880951 240.480255,324.060425
	C242.254547,328.107178 243.651016,331.292175 245.182159,334.833557
z"/>
<path fill="#FCFDFD" opacity="1.000000" stroke="none"
	d="
M496.018127,371.046997
	C502.870697,355.536072 509.606354,340.385345 516.876709,324.031952
	C525.396606,343.733032 533.536560,362.555511 541.845764,381.769470
	C524.913086,381.769470 508.526306,381.769470 491.831207,381.769470
	C492.370483,377.979187 494.608368,374.863953 496.018127,371.046997
z"/>
</svg>
